<svg width="20" height="20" viewBox="0 0 20 20" fill="none" xmlns="http://www.w3.org/2000/svg">
<g clip-path="url(#clip0_5401_7314)">
<path d="M17.0455 13.0387L16.1238 11.5004C15.7938 10.9504 15.6205 10.3211 15.6205 9.6803V7.49117C15.6205 4.3945 13.0988 1.87451 9.99963 1.87451C6.90046 1.87451 4.37879 4.39367 4.37879 7.49117V9.6803C4.37879 10.3211 4.20462 10.9504 3.87545 11.5004L2.95379 13.0387C2.63296 13.5728 2.62546 14.2161 2.93213 14.7578C3.23963 15.3011 3.79545 15.6253 4.41962 15.6253H7.73629C7.72962 15.6953 7.70879 15.7628 7.70879 15.8337C7.70879 17.0978 8.73629 18.1253 10.0005 18.1253C11.2646 18.1253 12.2921 17.0978 12.2921 15.8337C12.2921 15.7628 12.2713 15.6953 12.2646 15.6253H15.5813C16.2055 15.6253 16.7621 15.3011 17.0688 14.7586C17.3746 14.2161 17.3663 13.5728 17.0455 13.0387ZM11.0405 15.8337C11.0405 16.4078 10.573 16.8753 9.99879 16.8753C9.42462 16.8753 8.95712 16.4078 8.95712 15.8337C8.95712 15.7628 8.97046 15.6937 8.98463 15.6253H11.013C11.0271 15.6937 11.0405 15.7628 11.0405 15.8337ZM15.9796 14.142C15.9396 14.212 15.8221 14.3745 15.5796 14.3745H4.41795C4.17628 14.3745 4.05795 14.212 4.01795 14.142C3.97879 14.072 3.89962 13.8878 4.02379 13.6812L4.94546 12.1429C5.39213 11.3987 5.62712 10.547 5.62712 9.6803V7.49117C5.62712 5.08367 7.58795 3.12451 9.99795 3.12451C12.4079 3.12451 14.3688 5.08367 14.3688 7.49117V9.6803C14.3688 10.547 14.6046 11.3987 15.0505 12.1429L15.9721 13.6812C16.0971 13.8878 16.0188 14.072 15.9796 14.142Z" fill="#1D1D1D"/>
</g>
<defs>
<clipPath id="clip0_5401_7314">
<rect width="20" height="20" fill="white"/>
</clipPath>
</defs>
</svg>
