<svg width="33" height="32" viewBox="0 0 33 32" fill="none" xmlns="http://www.w3.org/2000/svg">
<path d="M21.3333 14C21.3333 14.2652 21.2279 14.5196 21.0404 14.7071C20.8528 14.8946 20.5985 15 20.3333 15H12.3333C12.068 15 11.8137 14.8946 11.6261 14.7071C11.4386 14.5196 11.3333 14.2652 11.3333 14C11.3333 13.7348 11.4386 13.4804 11.6261 13.2929C11.8137 13.1054 12.068 13 12.3333 13H20.3333C20.5985 13 20.8528 13.1054 21.0404 13.2929C21.2279 13.4804 21.3333 13.7348 21.3333 14ZM20.3333 17H12.3333C12.068 17 11.8137 17.1054 11.6261 17.2929C11.4386 17.4804 11.3333 17.7348 11.3333 18C11.3333 18.2652 11.4386 18.5196 11.6261 18.7071C11.8137 18.8946 12.068 19 12.3333 19H20.3333C20.5985 19 20.8528 18.8946 21.0404 18.7071C21.2279 18.5196 21.3333 18.2652 21.3333 18C21.3333 17.7348 21.2279 17.4804 21.0404 17.2929C20.8528 17.1054 20.5985 17 20.3333 17ZM29.3333 15.5C29.3296 18.8141 28.0115 21.9914 25.6681 24.3348C23.3247 26.6782 20.1473 27.9964 16.8333 28H6.292C5.77271 27.9993 5.27488 27.7928 4.90769 27.4256C4.54049 27.0584 4.33391 26.5605 4.33325 26.0413V15.5C4.33325 12.1848 5.65021 9.00537 7.99442 6.66116C10.3386 4.31696 13.518 3 16.8333 3C20.1485 3 23.3279 4.31696 25.6721 6.66116C28.0163 9.00537 29.3333 12.1848 29.3333 15.5ZM27.3333 15.5C27.3333 12.7152 26.227 10.0445 24.2579 8.07538C22.2887 6.10625 19.618 5 16.8333 5C14.0485 5 11.3778 6.10625 9.40863 8.07538C7.4395 10.0445 6.33325 12.7152 6.33325 15.5V26H16.8333C19.6171 25.997 22.2861 24.8898 24.2546 22.9213C26.2231 20.9528 27.3303 18.2839 27.3333 15.5Z" fill="#838383"/>
</svg>
