<svg width="25" height="24" viewBox="0 0 25 24" fill="none" xmlns="http://www.w3.org/2000/svg">
<path d="M19.7806 18.2193C19.8502 18.289 19.9055 18.3717 19.9432 18.4628C19.9809 18.5538 20.0003 18.6514 20.0003 18.7499C20.0003 18.8485 19.9809 18.9461 19.9432 19.0371C19.9055 19.1281 19.8502 19.2109 19.7806 19.2806C19.7109 19.3502 19.6281 19.4055 19.5371 19.4432C19.4461 19.4809 19.3485 19.5003 19.2499 19.5003C19.1514 19.5003 19.0538 19.4809 18.9628 19.4432C18.8717 19.4055 18.789 19.3502 18.7193 19.2806L12.4999 13.0602L6.28055 19.2806C6.13982 19.4213 5.94895 19.5003 5.74993 19.5003C5.55091 19.5003 5.36003 19.4213 5.2193 19.2806C5.07857 19.1398 4.99951 18.949 4.99951 18.7499C4.99951 18.5509 5.07857 18.36 5.2193 18.2193L11.4396 11.9999L5.2193 5.78055C5.07857 5.63982 4.99951 5.44895 4.99951 5.24993C4.99951 5.05091 5.07857 4.86003 5.2193 4.7193C5.36003 4.57857 5.55091 4.49951 5.74993 4.49951C5.94895 4.49951 6.13982 4.57857 6.28055 4.7193L12.4999 10.9396L18.7193 4.7193C18.86 4.57857 19.0509 4.49951 19.2499 4.49951C19.449 4.49951 19.6398 4.57857 19.7806 4.7193C19.9213 4.86003 20.0003 5.05091 20.0003 5.24993C20.0003 5.44895 19.9213 5.63982 19.7806 5.78055L13.5602 11.9999L19.7806 18.2193Z" fill="white"/>
</svg>
