<svg width="33" height="32" viewBox="0 0 33 32" fill="none" xmlns="http://www.w3.org/2000/svg">
<path d="M16.6668 3C14.0956 3 11.5822 3.76244 9.44434 5.1909C7.3065 6.61935 5.64026 8.64968 4.65632 11.0251C3.67238 13.4006 3.41494 16.0144 3.91655 18.5362C4.41815 21.0579 5.65628 23.3743 7.47437 25.1924C9.29245 27.0105 11.6088 28.2486 14.1306 28.7502C16.6523 29.2518 19.2662 28.9944 21.6416 28.0104C24.0171 27.0265 26.0474 25.3603 27.4759 23.2224C28.9043 21.0846 29.6668 18.5712 29.6668 16C29.6631 12.5533 28.2923 9.24882 25.8551 6.81163C23.4179 4.37445 20.1135 3.00364 16.6668 3ZM16.6668 27C14.4912 27 12.3644 26.3549 10.5555 25.1462C8.74654 23.9375 7.33664 22.2195 6.50408 20.2095C5.67151 18.1995 5.45368 15.9878 5.87812 13.854C6.30255 11.7202 7.3502 9.7602 8.88858 8.22183C10.427 6.68345 12.387 5.6358 14.5208 5.21136C16.6546 4.78692 18.8663 5.00476 20.8763 5.83733C22.8863 6.66989 24.6042 8.07979 25.8129 9.88873C27.0216 11.6977 27.6668 13.8244 27.6668 16C27.6634 18.9164 26.5035 21.7123 24.4413 23.7745C22.3791 25.8367 19.5831 26.9967 16.6668 27ZM22.2193 9.105L14.2193 13.105C14.0258 13.2022 13.8689 13.3591 13.7718 13.5525L9.77175 21.5525C9.69543 21.705 9.65939 21.8745 9.66705 22.0449C9.6747 22.2153 9.7258 22.3808 9.81549 22.5259C9.90518 22.671 10.0305 22.7907 10.1795 22.8736C10.3285 22.9566 10.4962 23.0001 10.6668 23C10.822 22.9998 10.9751 22.9638 11.1143 22.895L19.1143 18.895C19.3077 18.7978 19.4646 18.6409 19.5618 18.4475L23.5618 10.4475C23.6561 10.2597 23.6889 10.0469 23.6554 9.83933C23.622 9.6318 23.5239 9.4401 23.3753 9.29146C23.2267 9.14282 23.035 9.0448 22.8274 9.01132C22.6199 8.97785 22.4071 9.01063 22.2193 9.105ZM17.9168 17.25L12.903 19.7638L15.4168 14.75L20.4355 12.2413L17.9168 17.25Z" fill="#838383"/>
</svg>
