<svg width="16" height="17" viewBox="0 0 16 17" fill="none" xmlns="http://www.w3.org/2000/svg">
<path d="M11.8046 5.63807C12.0649 5.37772 12.0649 4.95561 11.8046 4.69526C11.5442 4.43491 11.1221 4.43491 10.8618 4.69526L4.6665 10.8905L1.80458 8.0286C1.54423 7.76825 1.12212 7.76825 0.861766 8.0286C0.601417 8.28894 0.601417 8.71106 0.861766 8.9714L4.1951 12.3047C4.45545 12.5651 4.87756 12.5651 5.13791 12.3047L11.8046 5.63807Z" fill="#E94057"/>
<path d="M15.1379 5.63807C15.3983 5.37772 15.3983 4.95561 15.1379 4.69526C14.8776 4.43491 14.4554 4.43491 14.1951 4.69526L7.99669 10.8937C7.73501 10.6862 7.3536 10.7034 7.11177 10.9453C6.85142 11.2056 6.85142 11.6277 7.11177 11.8881L7.52843 12.3047C7.78878 12.5651 8.21089 12.5651 8.47124 12.3047L15.1379 5.63807Z" fill="#E94057"/>
<path d="M5.55457 8.44526L5.13791 8.0286C4.87756 7.76825 4.45545 7.76825 4.1951 8.0286C3.93475 8.28894 3.93475 8.71106 4.1951 8.9714L4.61177 9.38807C4.87212 9.64842 5.29423 9.64842 5.55457 9.38807C5.81492 9.12772 5.81492 8.70561 5.55457 8.44526Z" fill="#E94057"/>
</svg>
