<svg width="36" height="36" viewBox="0 0 36 36" fill="none" xmlns="http://www.w3.org/2000/svg">
<circle cx="18" cy="18" r="18" fill="#F5F5F5"/>
<g clip-path="url(#clip0_2001_1092)">
<path d="M11.125 14.875H13.7031C13.8408 15.4128 14.1536 15.8894 14.5921 16.2298C15.0306 16.5702 15.5699 16.7549 16.125 16.7549C16.6801 16.7549 17.2194 16.5702 17.6579 16.2298C18.0964 15.8894 18.4092 15.4128 18.5469 14.875H24.875C25.0408 14.875 25.1997 14.8092 25.3169 14.692C25.4342 14.5748 25.5 14.4158 25.5 14.25C25.5 14.0843 25.4342 13.9253 25.3169 13.8081C25.1997 13.6909 25.0408 13.625 24.875 13.625H18.5469C18.4092 13.0873 18.0964 12.6106 17.6579 12.2702C17.2194 11.9299 16.6801 11.7451 16.125 11.7451C15.5699 11.7451 15.0306 11.9299 14.5921 12.2702C14.1536 12.6106 13.8408 13.0873 13.7031 13.625H11.125C10.9592 13.625 10.8003 13.6909 10.6831 13.8081C10.5658 13.9253 10.5 14.0843 10.5 14.25C10.5 14.4158 10.5658 14.5748 10.6831 14.692C10.8003 14.8092 10.9592 14.875 11.125 14.875ZM16.125 13C16.3722 13 16.6139 13.0733 16.8195 13.2107C17.025 13.348 17.1852 13.5433 17.2798 13.7717C17.3745 14.0001 17.3992 14.2514 17.351 14.4939C17.3028 14.7364 17.1837 14.9591 17.0089 15.1339C16.8341 15.3087 16.6113 15.4278 16.3689 15.476C16.1264 15.5242 15.8751 15.4995 15.6466 15.4049C15.4182 15.3103 15.223 15.15 15.0857 14.9445C14.9483 14.7389 14.875 14.4972 14.875 14.25C14.875 13.9185 15.0067 13.6006 15.2411 13.3661C15.4755 13.1317 15.7935 13 16.125 13ZM24.875 21.125H23.5469C23.4092 20.5873 23.0964 20.1106 22.6579 19.7702C22.2194 19.4299 21.6801 19.2451 21.125 19.2451C20.5699 19.2451 20.0306 19.4299 19.5921 19.7702C19.1536 20.1106 18.8408 20.5873 18.7031 21.125H11.125C10.9592 21.125 10.8003 21.1909 10.6831 21.3081C10.5658 21.4253 10.5 21.5843 10.5 21.75C10.5 21.9158 10.5658 22.0748 10.6831 22.192C10.8003 22.3092 10.9592 22.375 11.125 22.375H18.7031C18.8408 22.9128 19.1536 23.3894 19.5921 23.7298C20.0306 24.0702 20.5699 24.2549 21.125 24.2549C21.6801 24.2549 22.2194 24.0702 22.6579 23.7298C23.0964 23.3894 23.4092 22.9128 23.5469 22.375H24.875C25.0408 22.375 25.1997 22.3092 25.3169 22.192C25.4342 22.0748 25.5 21.9158 25.5 21.75C25.5 21.5843 25.4342 21.4253 25.3169 21.3081C25.1997 21.1909 25.0408 21.125 24.875 21.125ZM21.125 23C20.8778 23 20.6361 22.9267 20.4305 22.7894C20.225 22.652 20.0648 22.4568 19.9701 22.2284C19.8755 22 19.8508 21.7486 19.899 21.5062C19.9472 21.2637 20.0663 21.041 20.2411 20.8661C20.4159 20.6913 20.6387 20.5723 20.8811 20.524C21.1236 20.4758 21.3749 20.5006 21.6034 20.5952C21.8318 20.6898 22.027 20.85 22.1643 21.0556C22.3017 21.2611 22.375 21.5028 22.375 21.75C22.375 22.0815 22.2433 22.3995 22.0089 22.6339C21.7745 22.8683 21.4565 23 21.125 23Z" fill="black"/>
</g>
<defs>
<clipPath id="clip0_2001_1092">
<rect width="20" height="20" fill="white" transform="translate(8 8)"/>
</clipPath>
</defs>
</svg>
