<svg width="16" height="17" viewBox="0 0 16 17" fill="none" xmlns="http://www.w3.org/2000/svg">
<path d="M13.6769 6.98554L8.67688 2.26804C8.67443 2.26591 8.67213 2.26361 8.67 2.26116C8.48591 2.09375 8.24602 2.00098 7.99719 2.00098C7.74836 2.00098 7.50846 2.09375 7.32438 2.26116L7.3175 2.26804L2.32312 6.98554C2.22125 7.07922 2.13993 7.19303 2.08431 7.31976C2.02869 7.44649 1.99998 7.58339 2 7.72179V13.4999C2 13.7651 2.10536 14.0195 2.29289 14.207C2.48043 14.3946 2.73478 14.4999 3 14.4999H6C6.26522 14.4999 6.51957 14.3946 6.70711 14.207C6.89464 14.0195 7 13.7651 7 13.4999V10.4999H9V13.4999C9 13.7651 9.10536 14.0195 9.29289 14.207C9.48043 14.3946 9.73478 14.4999 10 14.4999H13C13.2652 14.4999 13.5196 14.3946 13.7071 14.207C13.8946 14.0195 14 13.7651 14 13.4999V7.72179C14 7.58339 13.9713 7.44649 13.9157 7.31976C13.8601 7.19303 13.7788 7.07922 13.6769 6.98554ZM13 13.4999H10V10.4999C10 10.2347 9.89464 9.98034 9.70711 9.79281C9.51957 9.60527 9.26522 9.49991 9 9.49991H7C6.73478 9.49991 6.48043 9.60527 6.29289 9.79281C6.10536 9.98034 6 10.2347 6 10.4999V13.4999H3V7.72179L3.00688 7.71554L8 2.99991L12.9937 7.71429L13.0006 7.72054L13 13.4999Z" fill="white"/>
</svg>
