<svg width="15" height="17" viewBox="0 0 15 17" fill="none" xmlns="http://www.w3.org/2000/svg">
<path d="M7.5 4.5C7.03645 4.5 6.58331 4.64662 6.19788 4.92133C5.81245 5.19603 5.51205 5.58648 5.33466 6.04329C5.15726 6.50011 5.11085 7.00277 5.20128 7.48773C5.29172 7.97268 5.51494 8.41814 5.84272 8.76777C6.1705 9.1174 6.58811 9.3555 7.04276 9.45196C7.4974 9.54843 7.96865 9.49892 8.39691 9.3097C8.82518 9.12048 9.19122 8.80005 9.44876 8.38893C9.70629 7.9778 9.84375 7.49445 9.84375 7C9.84375 6.33696 9.59682 5.70107 9.15728 5.23223C8.71774 4.76339 8.1216 4.5 7.5 4.5ZM7.5 8.5C7.22187 8.5 6.94999 8.41203 6.71873 8.2472C6.48747 8.08238 6.30723 7.84811 6.20079 7.57403C6.09436 7.29994 6.06651 6.99834 6.12077 6.70736C6.17503 6.41639 6.30896 6.14912 6.50563 5.93934C6.7023 5.72956 6.95287 5.5867 7.22565 5.52882C7.49844 5.47094 7.78119 5.50065 8.03815 5.61418C8.29511 5.72771 8.51473 5.91997 8.66925 6.16664C8.82378 6.41332 8.90625 6.70333 8.90625 7C8.90625 7.39782 8.75809 7.77936 8.49437 8.06066C8.23065 8.34196 7.87296 8.5 7.5 8.5ZM7.5 1.5C6.13295 1.50165 4.82234 2.08165 3.85569 3.11274C2.88904 4.14383 2.3453 5.54182 2.34375 7C2.34375 8.9625 3.19395 11.0425 4.80469 13.0156C5.52845 13.9072 6.34304 14.7101 7.2334 15.4094C7.31221 15.4683 7.40611 15.4999 7.50234 15.4999C7.59857 15.4999 7.69247 15.4683 7.77129 15.4094C8.66001 14.7098 9.47302 13.9069 10.1953 13.0156C11.8037 11.0425 12.6562 8.9625 12.6562 7C12.6547 5.54182 12.111 4.14383 11.1443 3.11274C10.1777 2.08165 8.86705 1.50165 7.5 1.5ZM7.5 14.375C6.53145 13.5625 3.28125 10.5781 3.28125 7C3.28125 5.80653 3.72572 4.66193 4.51689 3.81802C5.30806 2.97411 6.38112 2.5 7.5 2.5C8.61888 2.5 9.69194 2.97411 10.4831 3.81802C11.2743 4.66193 11.7188 5.80653 11.7188 7C11.7188 10.5769 8.46855 13.5625 7.5 14.375Z" fill="white"/>
</svg>
