<svg width="36" height="36" viewBox="0 0 36 36" fill="none" xmlns="http://www.w3.org/2000/svg">
<circle cx="18" cy="18" r="18" fill="#F5F5F5"/>
<g clip-path="url(#clip0_2001_1097)">
<path d="M25.0455 21.0387L24.1238 19.5004C23.7938 18.9504 23.6205 18.3211 23.6205 17.6803V15.4912C23.6205 12.3945 21.0988 9.87451 17.9996 9.87451C14.9005 9.87451 12.3788 12.3937 12.3788 15.4912V17.6803C12.3788 18.3211 12.2046 18.9504 11.8754 19.5004L10.9538 21.0387C10.633 21.5728 10.6255 22.2161 10.9321 22.7578C11.2396 23.3011 11.7954 23.6253 12.4196 23.6253H15.7363C15.7296 23.6953 15.7088 23.7628 15.7088 23.8337C15.7088 25.0978 16.7363 26.1253 18.0005 26.1253C19.2646 26.1253 20.2921 25.0978 20.2921 23.8337C20.2921 23.7628 20.2713 23.6953 20.2646 23.6253H23.5813C24.2055 23.6253 24.7621 23.3011 25.0688 22.7586C25.3746 22.2161 25.3663 21.5728 25.0455 21.0387ZM19.0405 23.8337C19.0405 24.4078 18.573 24.8753 17.9988 24.8753C17.4246 24.8753 16.9571 24.4078 16.9571 23.8337C16.9571 23.7628 16.9705 23.6937 16.9846 23.6253H19.013C19.0271 23.6937 19.0405 23.7628 19.0405 23.8337ZM23.9796 22.142C23.9396 22.212 23.8221 22.3745 23.5796 22.3745H12.4179C12.1763 22.3745 12.058 22.212 12.018 22.142C11.9788 22.072 11.8996 21.8878 12.0238 21.6812L12.9455 20.1429C13.3921 19.3987 13.6271 18.547 13.6271 17.6803V15.4912C13.6271 13.0837 15.5879 11.1245 17.9979 11.1245C20.4079 11.1245 22.3688 13.0837 22.3688 15.4912V17.6803C22.3688 18.547 22.6046 19.3987 23.0505 20.1429L23.9721 21.6812C24.0971 21.8878 24.0188 22.072 23.9796 22.142Z" fill="#1B1B1B"/>
<circle cx="21" cy="13" r="3" fill="#FFC4C4"/>
<circle cx="21" cy="13" r="2" fill="#DC1010"/>
</g>
<defs>
<clipPath id="clip0_2001_1097">
<rect width="20" height="20" fill="white" transform="translate(8 8)"/>
</clipPath>
</defs>
</svg>
