<svg width="31" height="24" viewBox="0 0 31 24" fill="none" xmlns="http://www.w3.org/2000/svg">
<path fill-rule="evenodd" clip-rule="evenodd" d="M28.6565 1.79292C29.0064 2.06456 29.1249 2.46779 28.9614 2.83038L20.3953 21.8304C20.2209 22.2174 19.7598 22.4825 19.232 22.4992C18.7043 22.5159 18.2169 22.2808 18.0024 21.9062L13.3087 13.7076L2.74789 10.0638C2.26525 9.89731 1.96246 9.51894 1.98399 9.10926C2.00552 8.69959 2.34701 8.34162 2.84552 8.20617L27.3201 1.55617C27.7872 1.42926 28.3066 1.52128 28.6565 1.79292ZM15.821 13.1715L19.0371 18.789L24.6651 6.30571L15.821 13.1715ZM22.8434 4.8915L6.76328 9.26063L13.9993 11.7573L22.8434 4.8915Z" fill="#E94057"/>
</svg>
