<svg width="20" height="20" viewBox="0 0 20 20" fill="none" xmlns="http://www.w3.org/2000/svg">
<path d="M9.99979 6.24979C9.25811 6.24979 8.53309 6.46973 7.9164 6.88178C7.29972 7.29384 6.81907 7.87951 6.53524 8.56473C6.25142 9.24995 6.17715 10.004 6.32185 10.7314C6.46654 11.4588 6.82369 12.127 7.34814 12.6514C7.87259 13.1759 8.54077 13.533 9.2682 13.6777C9.99563 13.8224 10.7496 13.7482 11.4349 13.4643C12.1201 13.1805 12.7057 12.6999 13.1178 12.0832C13.5299 11.4665 13.7498 10.7415 13.7498 9.99979C13.7488 9.00555 13.3533 8.05232 12.6503 7.34928C11.9473 6.64625 10.994 6.25083 9.99979 6.24979ZM9.99979 12.4998C9.50534 12.4998 9.02199 12.3532 8.61087 12.0785C8.19974 11.8038 7.87931 11.4133 7.69009 10.9565C7.50087 10.4997 7.45137 9.99702 7.54783 9.51207C7.64429 9.02711 7.88239 8.58166 8.23203 8.23203C8.58166 7.88239 9.02711 7.64429 9.51207 7.54783C9.99702 7.45137 10.4997 7.50087 10.9565 7.69009C11.4133 7.87931 11.8038 8.19974 12.0785 8.61087C12.3532 9.02199 12.4998 9.50534 12.4998 9.99979C12.4998 10.6628 12.2364 11.2987 11.7676 11.7676C11.2987 12.2364 10.6628 12.4998 9.99979 12.4998ZM16.8748 10.1685C16.8779 10.056 16.8779 9.94354 16.8748 9.83104L18.0404 8.37479C18.1015 8.29833 18.1438 8.20859 18.1639 8.11278C18.184 8.01698 18.1813 7.9178 18.156 7.82323C17.965 7.10495 17.6791 6.4153 17.306 5.77245C17.2572 5.68832 17.1894 5.61676 17.108 5.56346C17.0266 5.51015 16.9339 5.47658 16.8373 5.46542L14.9842 5.25917C14.9071 5.17792 14.829 5.09979 14.7498 5.02479L14.531 3.16698C14.5198 3.07027 14.4861 2.97753 14.4327 2.89614C14.3792 2.81476 14.3075 2.74699 14.2232 2.69823C13.5801 2.32584 12.8905 2.04029 12.1724 1.84901C12.0778 1.82385 11.9786 1.82128 11.8828 1.8415C11.787 1.86172 11.6973 1.90416 11.6209 1.96542L10.1685 3.12479C10.056 3.12479 9.94354 3.12479 9.83104 3.12479L8.37479 1.96151C8.29833 1.90039 8.20859 1.85809 8.11278 1.838C8.01698 1.81792 7.9178 1.82062 7.82323 1.84589C7.10507 2.03731 6.41546 2.32314 5.77245 2.69589C5.68832 2.74473 5.61676 2.81255 5.56346 2.89392C5.51015 2.9753 5.47658 3.068 5.46542 3.16464L5.25917 5.02089C5.17792 5.09849 5.09979 5.17661 5.02479 5.25526L3.16698 5.46854C3.07027 5.47979 2.97753 5.51348 2.89614 5.56692C2.81476 5.62037 2.74699 5.69208 2.69823 5.77635C2.32584 6.41945 2.04029 7.10904 1.84901 7.82714C1.82385 7.92176 1.82128 8.02098 1.8415 8.11679C1.86172 8.21259 1.90416 8.30231 1.96542 8.3787L3.12479 9.83104C3.12479 9.94354 3.12479 10.056 3.12479 10.1685L1.96151 11.6248C1.90039 11.7013 1.85809 11.791 1.838 11.8868C1.81792 11.9826 1.82062 12.0818 1.84589 12.1764C2.03697 12.8946 2.32281 13.5843 2.69589 14.2271C2.74473 14.3113 2.81255 14.3828 2.89392 14.4361C2.9753 14.4894 3.068 14.523 3.16464 14.5342L5.01776 14.7404C5.09537 14.8217 5.17349 14.8998 5.25214 14.9748L5.46854 16.8326C5.47979 16.9293 5.51348 17.0221 5.56692 17.1034C5.62037 17.1848 5.69208 17.2526 5.77635 17.3014C6.41945 17.6737 7.10904 17.9593 7.82714 18.1506C7.92176 18.1757 8.02098 18.1783 8.11679 18.1581C8.21259 18.1379 8.30231 18.0954 8.3787 18.0342L9.83104 16.8748C9.94354 16.8779 10.056 16.8779 10.1685 16.8748L11.6248 18.0404C11.7013 18.1015 11.791 18.1438 11.8868 18.1639C11.9826 18.184 12.0818 18.1813 12.1764 18.156C12.8946 17.965 13.5843 17.6791 14.2271 17.306C14.3113 17.2572 14.3828 17.1894 14.4361 17.108C14.4894 17.0266 14.523 16.9339 14.5342 16.8373L14.7404 14.9842C14.8217 14.9071 14.8998 14.829 14.9748 14.7498L16.8326 14.531C16.9293 14.5198 17.0221 14.4861 17.1034 14.4327C17.1848 14.3792 17.2526 14.3075 17.3014 14.2232C17.6737 13.5801 17.9593 12.8905 18.1506 12.1724C18.1757 12.0778 18.1783 11.9786 18.1581 11.8828C18.1379 11.787 18.0954 11.6973 18.0342 11.6209L16.8748 10.1685ZM15.617 9.66073C15.6303 9.88658 15.6303 10.113 15.617 10.3389C15.6077 10.4935 15.6561 10.646 15.7529 10.767L16.8615 12.1521C16.7343 12.5564 16.5714 12.9486 16.3748 13.324L14.6092 13.524C14.4554 13.5411 14.3134 13.6146 14.2107 13.7303C14.0603 13.8994 13.9002 14.0596 13.731 14.2099C13.6153 14.3127 13.5419 14.4546 13.5248 14.6084L13.3287 16.3724C12.9533 16.5692 12.5611 16.7321 12.1568 16.8592L10.7709 15.7506C10.66 15.662 10.5222 15.6137 10.3803 15.6139H10.3428C10.1169 15.6271 9.89048 15.6271 9.66464 15.6139C9.51001 15.6045 9.35744 15.653 9.23651 15.7498L7.84745 16.8592C7.44318 16.732 7.05101 16.5691 6.67557 16.3724L6.47557 14.6092C6.45851 14.4554 6.38502 14.3134 6.26932 14.2107C6.10019 14.0603 5.94002 13.9002 5.78964 13.731C5.68693 13.6153 5.54496 13.5419 5.3912 13.5248L3.62714 13.3279C3.43041 12.9525 3.26753 12.5603 3.14042 12.156L4.24901 10.7701C4.34581 10.6492 4.39426 10.4966 4.38495 10.342C4.37167 10.1161 4.37167 9.8897 4.38495 9.66385C4.39426 9.50923 4.34581 9.35666 4.24901 9.23573L3.14042 7.84745C3.26762 7.44318 3.4305 7.05101 3.62714 6.67557L5.39042 6.47557C5.54418 6.45851 5.68615 6.38502 5.78885 6.26932C5.93924 6.10019 6.09941 5.94002 6.26854 5.78964C6.3847 5.68686 6.45849 5.54457 6.47557 5.39042L6.67167 3.62714C7.04706 3.43041 7.43924 3.26753 7.84354 3.14042L9.22948 4.24901C9.35041 4.34581 9.50298 4.39426 9.65761 4.38495C9.88345 4.37167 10.1099 4.37167 10.3357 4.38495C10.4904 4.39426 10.6429 4.34581 10.7639 4.24901L12.1521 3.14042C12.5564 3.26762 12.9486 3.4305 13.324 3.62714L13.524 5.39042C13.5411 5.54418 13.6146 5.68615 13.7303 5.78885C13.8994 5.93924 14.0596 6.09941 14.2099 6.26854C14.3127 6.38423 14.4546 6.45772 14.6084 6.47479L16.3724 6.67089C16.5692 7.04628 16.7321 7.43845 16.8592 7.84276L15.7506 9.2287C15.6528 9.35065 15.6043 9.50479 15.6146 9.66073H15.617Z" fill="#1D1D1D"/>
</svg>
