<svg width="20" height="20" viewBox="0 0 20 20" fill="none" xmlns="http://www.w3.org/2000/svg">
<path d="M11.2498 12.3189C12.2296 11.7087 12.984 10.796 13.3988 9.71885C13.8136 8.64171 13.8664 7.45877 13.549 6.34899C13.2317 5.23921 12.5615 4.26298 11.6399 3.56799C10.7184 2.873 9.5955 2.49707 8.44124 2.49707C7.28698 2.49707 6.16412 2.873 5.24254 3.56799C4.32097 4.26298 3.65081 5.23921 3.33347 6.34899C3.01612 7.45877 3.06885 8.64171 3.48369 9.71885C3.89852 10.796 4.65288 11.7087 5.63265 12.3189C4.01936 12.8471 2.5678 13.8338 1.40061 15.2229C1.34593 15.2854 1.30426 15.3582 1.27804 15.437C1.25182 15.5159 1.24158 15.5991 1.24791 15.682C1.25425 15.7648 1.27704 15.8455 1.31495 15.9195C1.35285 15.9934 1.40511 16.059 1.46868 16.1125C1.53224 16.166 1.60583 16.2063 1.68515 16.231C1.76446 16.2557 1.8479 16.2643 1.9306 16.2564C2.0133 16.2485 2.09359 16.2242 2.16678 16.1849C2.23997 16.1456 2.30459 16.0921 2.35686 16.0275C3.92561 14.1557 6.08655 13.1252 8.43733 13.1252C10.7881 13.1252 12.9491 14.1557 14.5209 16.0275C14.6276 16.1546 14.7804 16.234 14.9457 16.2483C15.111 16.2627 15.2752 16.2108 15.4022 16.1041C15.5292 15.9974 15.6086 15.8446 15.623 15.6793C15.6373 15.5141 15.5854 15.3499 15.4787 15.2229C14.3108 13.8338 12.8592 12.8471 11.2498 12.3189ZM4.37483 7.81269C4.37483 7.00921 4.61309 6.22377 5.05949 5.55569C5.50588 4.88762 6.14036 4.36691 6.88268 4.05943C7.62501 3.75195 8.44184 3.6715 9.22989 3.82825C10.0179 3.98501 10.7418 4.37192 11.31 4.94007C11.8781 5.50822 12.265 6.23209 12.4218 7.02014C12.5785 7.80819 12.4981 8.62502 12.1906 9.36735C11.8831 10.1097 11.3624 10.7441 10.6943 11.1905C10.0263 11.6369 9.24082 11.8752 8.43733 11.8752C7.36027 11.874 6.32768 11.4455 5.56608 10.6839C4.80448 9.92235 4.37607 8.88976 4.37483 7.81269ZM19.0819 11.1775L18.7178 10.9674C18.7605 10.7413 18.7605 10.5091 18.7178 10.283L19.0819 10.0729C19.2255 9.98997 19.3302 9.85344 19.3732 9.69331C19.4161 9.53317 19.3937 9.36253 19.3108 9.21894C19.2279 9.07536 19.0914 8.97057 18.9312 8.92764C18.7711 8.88471 18.6005 8.90716 18.4569 8.99004L18.092 9.20098C17.9174 9.05118 17.7167 8.9349 17.4998 8.85801V8.43769C17.4998 8.27193 17.434 8.11296 17.3168 7.99575C17.1996 7.87854 17.0406 7.81269 16.8748 7.81269C16.7091 7.81269 16.5501 7.87854 16.4329 7.99575C16.3157 8.11296 16.2498 8.27193 16.2498 8.43769V8.85801C16.033 8.9349 15.8322 9.05118 15.6576 9.20098L15.2928 8.99004C15.2217 8.949 15.1432 8.92237 15.0618 8.91166C14.9804 8.90096 14.8977 8.90639 14.8184 8.92764C14.7391 8.9489 14.6648 8.98556 14.5997 9.03555C14.5346 9.08553 14.4799 9.14785 14.4389 9.21894C14.3979 9.29004 14.3712 9.36853 14.3605 9.44992C14.3498 9.53131 14.3552 9.61401 14.3765 9.69331C14.3978 9.7726 14.4344 9.84693 14.4844 9.91205C14.5344 9.97717 14.5967 10.0318 14.6678 10.0729L15.0319 10.283C14.9892 10.5091 14.9892 10.7413 15.0319 10.9674L14.6678 11.1775C14.5242 11.2604 14.4194 11.3969 14.3765 11.5571C14.3336 11.7172 14.356 11.8879 14.4389 12.0314C14.5218 12.175 14.6583 12.2798 14.8184 12.3227C14.9786 12.3657 15.1492 12.3432 15.2928 12.2604L15.6576 12.0494C15.8322 12.1992 16.033 12.3155 16.2498 12.3924V12.8127C16.2498 12.9785 16.3157 13.1374 16.4329 13.2546C16.5501 13.3718 16.7091 13.4377 16.8748 13.4377C17.0406 13.4377 17.1996 13.3718 17.3168 13.2546C17.434 13.1374 17.4998 12.9785 17.4998 12.8127V12.3924C17.7167 12.3155 17.9174 12.1992 18.092 12.0494L18.4569 12.2604C18.5518 12.3154 18.6596 12.3443 18.7694 12.3439C18.907 12.344 19.0408 12.2986 19.15 12.2149C19.2592 12.1311 19.3377 12.0136 19.3733 11.8807C19.4089 11.7477 19.3997 11.6068 19.347 11.4796C19.2943 11.3525 19.2011 11.2463 19.0819 11.1775ZM16.2498 10.6252C16.2498 10.5016 16.2865 10.3807 16.3552 10.278C16.4238 10.1752 16.5215 10.0951 16.6357 10.0478C16.7499 10.0005 16.8755 9.98809 16.9968 10.0122C17.118 10.0363 17.2294 10.0958 17.3168 10.1833C17.4042 10.2707 17.4637 10.382 17.4878 10.5033C17.5119 10.6245 17.4996 10.7502 17.4523 10.8644C17.405 10.9786 17.3248 11.0762 17.2221 11.1449C17.1193 11.2135 16.9984 11.2502 16.8748 11.2502C16.7091 11.2502 16.5501 11.1843 16.4329 11.0671C16.3157 10.9499 16.2498 10.791 16.2498 10.6252Z" fill="#1D1D1D"/>
</svg>
